<?xml version="1.0" encoding="UTF-8"?>
<svg id="Layer_2" data-name="Layer 2" xmlns="http://www.w3.org/2000/svg" viewBox="0 0 741.77 64.35">
  <defs>
    <style>
      .cls-1 {
        letter-spacing: -.04em;
      }

      .cls-2 {
        font-family: FuturaBT-Medium, 'Futura Md BT';
        font-size: 53px;
        font-weight: 500;
      }

      .cls-2, .cls-3 {
        fill: #0083a9;
      }

      .cls-4 {
        fill: #0b4e8e;
      }
    </style>
  </defs>
  <g id="Layer_1-2" data-name="Layer 1">
    <g>
      <path class="cls-4" d="M68.68,17.53C52.08,3.74,24.32,9.81,26.44,11.42c15.18,1.47,25.97,18.63,25.97,18.63l-17.72,6.01,9.42,5.63s9.01-3.94,8.68-3.68c-2.99,2.33-6.85,4.97-6.85,4.97l2.25,1.63s2.65-5.92,8.28-5.08c20.61,.42,22.13-11.29,24.98-12.56,1.6-.71,3.51-.7,5.54,.26,1.17,.55,1.9,.87,1.9,.87,0,0,.33-.57-1.11-2.95,.31-2.2-1.72-7.04-7.1-8.24,0,0-1.56-.92-11.99,.63"/>
      <path class="cls-3" d="M69.8,13.88C82.39-1.76,96.63,.07,96.63,.07c0,0-10.86,6.62-12.47,15.31,0,0-1.81-3.57-6.63-3.45-4.82,.14-7.73,1.96-7.73,1.96"/>
      <path class="cls-3" d="M31.38,58.64S10.96,42.47,6.73,21.47c-1.07,4.5-4.22,22.62,24.65,37.18"/>
      <path class="cls-3" d="M167.28,37.1c.41-4.56,4.38-8.44,9.16-8.44s8.39,3.98,8.95,8.44h-18.11Zm21.27,2.21c.05-6.98-4.49-12.85-12.16-12.85s-12.28,5.82-12.28,12.59,4.76,12.69,12.28,12.69c4.98,0,9.04-2.35,11.35-6.55l-2.09-1.15c-1.8,3.26-4.99,5.51-8.94,5.51-5.86,0-10.3-4.09-10.14-10.23h21.97Z"/>
      <path class="cls-3" d="M217.21,37.37c.41-4.57,4.77-8.46,9.56-8.46s8.84,3.99,9.41,8.46h-18.97Zm21.67,2.2c.06-6.97-4.49-12.84-12.16-12.84s-12.27,5.82-12.27,12.59,4.76,12.7,12.27,12.7c4.98,0,9.04-2.36,11.34-6.57l-2.08-1.15c-1.81,3.26-4.98,5.51-8.94,5.51-5.86,0-10.3-4.09-10.14-10.23h21.97Z"/>
      <polygon class="cls-3" points="115.3 51.43 112.48 51.43 112.48 14.96 98.98 14.96 98.98 12.64 128.8 12.64 128.8 14.96 115.3 14.96 115.3 51.43"/>
      <path class="cls-3" d="M12.98,8.97c-7.85,31.36,32.36,51.2,32.36,51.2,0,0-26.53-15.13-32.36-51.2"/>
      <path class="cls-3" d="M17.46,56.69S4.37,45.8,.19,29.08c-.72,6.44-.26,16.6,17.27,27.61"/>
      <path class="cls-3" d="M257.17,31.48c-.9-1.68-2.68-2.73-4.84-2.73-2.32,0-4.72,1.67-4.72,3.78,0,5.82,13.44,2.99,13.44,11.75,0,4.45-3.94,7.55-8.9,7.55-4.59,0-8.36-2.47-9.49-6.4l2.63-.74c1.02,2.88,3.23,4.94,6.87,4.94s6.21-2.41,6.21-5.46-2.62-3.93-5.37-4.77c-3.76-1.21-8.07-2.63-8.07-6.72,0-3.67,3.52-6.14,7.53-6.14,2.8,0,5.85,1.63,7.04,3.88l-2.33,1.05Z"/>
      <path class="cls-3" d="M303.48,31.48c-.89-1.68-2.68-2.73-4.83-2.73-2.32,0-4.71,1.67-4.71,3.78,0,5.82,13.44,2.99,13.44,11.75,0,4.45-3.94,7.55-8.91,7.55-4.59,0-8.36-2.47-9.49-6.4l2.63-.74c1.01,2.88,3.22,4.94,6.86,4.94s6.21-2.41,6.21-5.46-2.62-3.93-5.38-4.77c-3.75-1.21-8.06-2.63-8.06-6.72,0-3.67,3.52-6.14,7.52-6.14,2.82,0,5.86,1.63,7.05,3.88l-2.33,1.05Z"/>
      <path class="cls-3" d="M128.2,29.63c1.08-2.21,3.05-3.08,5.97-3.08,0,.1,0,1.93,.02,2.04-6.03,0-6.1,6.77-6.1,10.34v12.38h-2.68V27.07h2.68"/>
      <path class="cls-3" d="M159.27,27.07v14.53c0,2.47-.47,4.93-2.2,6.98-1.9,2.21-4.6,3.25-7.71,3.25s-5.8-1.04-7.72-3.25c-1.73-2.06-2.2-4.51-2.2-6.98v-14.53h2.69v13.69c0,4.67,.6,8.36,7.22,8.36s7.22-3.68,7.22-8.36v-13.69h2.68Z"/>
      <path class="cls-3" d="M285.8,27.82v14.53c0,2.47-.47,4.94-2.21,6.98-1.91,2.2-4.61,3.25-7.71,3.25s-5.79-1.06-7.71-3.25c-1.73-2.04-2.21-4.51-2.21-6.98v-14.53h2.7v13.69c0,4.67,.59,8.35,7.23,8.35s7.22-3.67,7.22-8.35v-13.69h2.69Z"/>
      <path class="cls-3" d="M411.91,30.04c1.07-2.2,3.04-3.08,5.97-3.08,0,.11,0,1.94,0,2.05-6.04,0-6.1,6.77-6.1,10.33v12.39h-2.69V27.48h2.69"/>
      <path class="cls-3" d="M442.51,32.69c-2.45-2.52-5.42-3.94-9.11-3.94-6.1,0-10.67,4.88-10.67,10.39s4.53,10.49,10.62,10.49c3.69,0,7.16-1.68,9.49-4.35v3.2c-2.63,2.16-5.92,3.36-9.39,3.36-7.66,0-13.25-5.62-13.25-12.7s5.7-12.6,13.31-12.6c3.35,0,6.43,.95,9,2.99v3.15Z"/>
      <polygon class="cls-3" points="450.74 10.83 450.74 39.06 450.74 51.02 448.05 51.02 448.05 10.83 450.74 10.83"/>
      <path class="cls-3" d="M448.17,50.93v-14.53c0-2.47,.46-4.93,2.2-6.98,1.92-2.21,4.6-3.25,7.72-3.25s5.79,1.05,7.7,3.25c1.74,2.05,2.21,4.52,2.21,6.98v14.53h-2.69v-13.7c0-4.67-.6-8.36-7.22-8.36s-7.23,3.69-7.23,8.36v13.7h-2.69Z"/>
      <path class="cls-3" d="M402.64,27.48v14.52c0,2.47-.47,4.93-2.21,6.98-1.9,2.2-4.61,3.25-7.7,3.25s-5.8-1.06-7.72-3.25c-1.72-2.05-2.2-4.51-2.2-6.98v-14.52h2.68v13.69c0,4.68,.6,8.36,7.23,8.36s7.22-3.68,7.22-8.36v-13.69h2.69Z"/>
      <polygon class="cls-3" points="359.89 11.11 359.89 39.35 359.89 51.31 357.2 51.31 357.2 11.11 359.89 11.11"/>
      <path class="cls-3" d="M357.32,51.22v-14.53c0-2.47,.47-4.94,2.21-6.98,1.9-2.21,4.6-3.25,7.7-3.25s5.8,1.04,7.71,3.25c1.74,2.04,2.21,4.51,2.21,6.98v14.53h-2.69v-13.69c0-4.66-.61-8.35-7.24-8.35s-7.22,3.69-7.22,8.35v13.69h-2.69Z"/>
      <path class="cls-3" d="M336.61,49.67c-9.75,0-17.65-7.63-17.65-17.05s7.9-17.05,17.65-17.05c5.61,0,10.61,2.55,13.84,6.51,.12,.11,.24,.22,.35,.34v-4.9c-4-3.2-8.8-4.67-14.04-4.67-11.85,0-20.75,8.67-20.75,19.64s8.72,19.81,20.66,19.81c5.4,0,10.55-1.88,14.65-5.23v-5c-.06,.06-.11,.12-.16,.18-3.18,4.48-8.51,7.42-14.56,7.42"/>
      <path class="cls-3" d="M208.58,36.52l-.02-25.73-2.79,.03v9.93s.07,16.99,.07,16.99c0,4.23-.13,12-7.3,12,.02,.14,.02,2.32,.01,2.43,3.47,0,6.07-2.53,7.51-4.37,2.79-4.34,2.51-11.29,2.51-11.29"/>
    </g>
    <text class="cls-2" transform="translate(476.95 51.85)"><tspan class="cls-1" x="0" y="0">P</tspan><tspan x="26.32" y="0">ower</tspan><tspan class="cls-1" x="146.22" y="0">P</tspan><tspan x="172.53" y="0">oint</tspan></text>
  </g>
</svg>